{
	"patcher" : 	{
		"fileversion" : 1,
		"appversion" : 		{
			"major" : 8,
			"minor" : 0,
			"revision" : 1,
			"architecture" : "x64",
			"modernui" : 1
		}
,
		"classnamespace" : "box",
		"rect" : [ 40.0, 82.0, 1468.0, 724.0 ],
		"bglocked" : 0,
		"openinpresentation" : 0,
		"default_fontsize" : 12.0,
		"default_fontface" : 0,
		"default_fontname" : "Arial",
		"gridonopen" : 1,
		"gridsize" : [ 15.0, 15.0 ],
		"gridsnaponopen" : 1,
		"objectsnaponopen" : 1,
		"statusbarvisible" : 2,
		"toolbarvisible" : 1,
		"lefttoolbarpinned" : 0,
		"toptoolbarpinned" : 0,
		"righttoolbarpinned" : 0,
		"bottomtoolbarpinned" : 0,
		"toolbars_unpinned_last_save" : 0,
		"tallnewobj" : 0,
		"boxanimatetime" : 200,
		"enablehscroll" : 1,
		"enablevscroll" : 1,
		"devicewidth" : 0.0,
		"description" : "",
		"digest" : "",
		"tags" : "",
		"style" : "",
		"subpatcher_template" : "",
		"boxes" : [ 			{
				"box" : 				{
					"bgmode" : 0,
					"border" : 0,
					"clickthrough" : 0,
					"enablehscroll" : 0,
					"enablevscroll" : 0,
					"extract" : 1,
					"id" : "obj-49",
					"lockeddragscroll" : 0,
					"maxclass" : "bpatcher",
					"name" : "bp.Compressor.maxpat",
					"numinlets" : 2,
					"numoutlets" : 2,
					"offset" : [ 0.0, 0.0 ],
					"outlettype" : [ "signal", "signal" ],
					"patching_rect" : [ 832.0, 1072.0, 339.0, 116.0 ],
					"varname" : "bp.Compressor",
					"viewvisibility" : 1
				}

			}
, 			{
				"box" : 				{
					"id" : "obj-47",
					"maxclass" : "spectroscope~",
					"numinlets" : 2,
					"numoutlets" : 1,
					"outlettype" : [ "" ],
					"patching_rect" : [ 518.0, 1014.66668701171875, 300.0, 100.0 ]
				}

			}
, 			{
				"box" : 				{
					"bgmode" : 0,
					"border" : 0,
					"clickthrough" : 0,
					"enablehscroll" : 0,
					"enablevscroll" : 0,
					"extract" : 1,
					"id" : "obj-46",
					"lockeddragscroll" : 0,
					"maxclass" : "bpatcher",
					"name" : "bp.Classroom Filter.maxpat",
					"numinlets" : 4,
					"numoutlets" : 1,
					"offset" : [ 0.0, 0.0 ],
					"outlettype" : [ "signal" ],
					"patching_rect" : [ 832.0, 831.66668701171875, 558.0, 223.0 ],
					"varname" : "bp.Classroom Filter",
					"viewvisibility" : 1
				}

			}
, 			{
				"box" : 				{
					"id" : "obj-44",
					"maxclass" : "spectroscope~",
					"numinlets" : 2,
					"numoutlets" : 1,
					"outlettype" : [ "" ],
					"patching_rect" : [ 993.3333740234375, 660.0, 300.0, 100.0 ]
				}

			}
, 			{
				"box" : 				{
					"id" : "obj-43",
					"maxclass" : "message",
					"numinlets" : 2,
					"numoutlets" : 1,
					"outlettype" : [ "" ],
					"patching_rect" : [ 867.3333740234375, 531.33331298828125, 51.0, 22.0 ],
					"text" : "speed 1"
				}

			}
, 			{
				"box" : 				{
					"data" : 					{
						"clips" : [ 							{
								"filename" : "C:/Users/Etienne/Documents/GitHub/GENERATIVE001/SAMPLES/Loop Back Ambiance/design_room.wav",
								"filekind" : "audiofile",
								"selection" : [ 0.0, 1.0 ],
								"loop" : 1,
								"content_state" : 								{
									"formant" : [ 1.0 ],
									"originaltempo" : [ 120.0 ],
									"basictuning" : [ 440 ],
									"originallengthms" : [ 0.0 ],
									"speed" : [ 1 ],
									"mode" : [ "basic" ],
									"pitchcorrection" : [ 0 ],
									"play" : [ 0 ],
									"slurtime" : [ 0.0 ],
									"followglobaltempo" : [ 0 ],
									"timestretch" : [ 0 ],
									"formantcorrection" : [ 0 ],
									"quality" : [ "basic" ],
									"pitchshift" : [ 1.0 ],
									"originallength" : [ 0.0, "ticks" ]
								}

							}
 ]
					}
,
					"id" : "obj-42",
					"maxclass" : "playlist~",
					"numinlets" : 1,
					"numoutlets" : 5,
					"outlettype" : [ "signal", "signal", "signal", "", "dictionary" ],
					"patching_rect" : [ 867.3333740234375, 586.0, 150.0, 30.0 ]
				}

			}
, 			{
				"box" : 				{
					"id" : "obj-39",
					"maxclass" : "newobj",
					"numinlets" : 3,
					"numoutlets" : 1,
					"outlettype" : [ "int" ],
					"patching_rect" : [ 1960.533447265625, 243.996673583984375, 59.0, 22.0 ],
					"text" : "drunk 8 2"
				}

			}
, 			{
				"box" : 				{
					"id" : "obj-40",
					"maxclass" : "newobj",
					"numinlets" : 3,
					"numoutlets" : 1,
					"outlettype" : [ "int" ],
					"patching_rect" : [ 2172.0, 243.996673583984375, 65.0, 22.0 ],
					"text" : "drunk 24 5"
				}

			}
, 			{
				"box" : 				{
					"id" : "obj-38",
					"maxclass" : "number",
					"numinlets" : 1,
					"numoutlets" : 2,
					"outlettype" : [ "", "bang" ],
					"parameter_enable" : 0,
					"patching_rect" : [ 1196.000035643577576, 244.000007271766663, 50.0, 22.0 ]
				}

			}
, 			{
				"box" : 				{
					"id" : "obj-35",
					"maxclass" : "toggle",
					"numinlets" : 1,
					"numoutlets" : 1,
					"outlettype" : [ "int" ],
					"parameter_enable" : 0,
					"patching_rect" : [ 1284.0, 120.380958557128906, 24.0, 24.0 ]
				}

			}
, 			{
				"box" : 				{
					"fontface" : 1,
					"fontsize" : 36.0,
					"id" : "obj-36",
					"maxclass" : "comment",
					"numinlets" : 1,
					"numoutlets" : 0,
					"patching_rect" : [ 1295.6666259765625, -6.666667461395264, 440.0, 47.0 ],
					"text" : "my first rhythm"
				}

			}
, 			{
				"box" : 				{
					"id" : "obj-34",
					"maxclass" : "newobj",
					"numinlets" : 3,
					"numoutlets" : 1,
					"outlettype" : [ "int" ],
					"patching_rect" : [ 1260.533447265625, 215.996673583984375, 59.0, 22.0 ],
					"text" : "drunk 8 2"
				}

			}
, 			{
				"box" : 				{
					"id" : "obj-33",
					"maxclass" : "toggle",
					"numinlets" : 1,
					"numoutlets" : 1,
					"outlettype" : [ "int" ],
					"parameter_enable" : 0,
					"patching_rect" : [ 1465.3333740234375, 147.047622680664063, 24.0, 24.0 ]
				}

			}
, 			{
				"box" : 				{
					"id" : "obj-31",
					"maxclass" : "newobj",
					"numinlets" : 3,
					"numoutlets" : 1,
					"outlettype" : [ "int" ],
					"patching_rect" : [ 1472.0, 215.996673583984375, 65.0, 22.0 ],
					"text" : "drunk 24 5"
				}

			}
, 			{
				"box" : 				{
					"id" : "obj-30",
					"maxclass" : "message",
					"numinlets" : 2,
					"numoutlets" : 1,
					"outlettype" : [ "" ],
					"patching_rect" : [ 2336.533447265625, 536.00006103515625, 61.0, 22.0 ],
					"text" : "speed 0.7"
				}

			}
, 			{
				"box" : 				{
					"data" : 					{
						"clips" : [ 							{
								"filename" : "C:/Users/Etienne/Documents/GitHub/GENERATIVE001/SAMPLES/Short Sounds Front/Ding ding ding.wav",
								"filekind" : "audiofile",
								"selection" : [ 0.0, 1.0 ],
								"loop" : 0,
								"content_state" : 								{
									"formant" : [ 1.0 ],
									"originaltempo" : [ 120.0 ],
									"basictuning" : [ 440 ],
									"originallengthms" : [ 0.0 ],
									"speed" : [ 0.7 ],
									"mode" : [ "basic" ],
									"pitchcorrection" : [ 0 ],
									"play" : [ 0 ],
									"slurtime" : [ 0.0 ],
									"followglobaltempo" : [ 0 ],
									"timestretch" : [ 0 ],
									"formantcorrection" : [ 0 ],
									"quality" : [ "basic" ],
									"pitchshift" : [ 1.0 ],
									"originallength" : [ 0.0, "ticks" ]
								}

							}
 ]
					}
,
					"id" : "obj-25",
					"maxclass" : "playlist~",
					"numinlets" : 1,
					"numoutlets" : 5,
					"outlettype" : [ "signal", "signal", "signal", "", "dictionary" ],
					"patching_rect" : [ 2296.0, 582.0, 150.0, 30.0 ]
				}

			}
, 			{
				"box" : 				{
					"id" : "obj-23",
					"maxclass" : "message",
					"numinlets" : 2,
					"numoutlets" : 1,
					"outlettype" : [ "" ],
					"patching_rect" : [ 1269.8668212890625, 506.666748046875, 51.0, 22.0 ],
					"text" : "speed 5"
				}

			}
, 			{
				"box" : 				{
					"data" : 					{
						"clips" : [ 							{
								"filename" : "C:/Users/Etienne/Documents/GitHub/GENERATIVE001/SAMPLES/Short Sounds Front/Ding ding ding.wav",
								"filekind" : "audiofile",
								"selection" : [ 0.0, 1.0 ],
								"loop" : 0,
								"content_state" : 								{
									"formant" : [ 1.0 ],
									"originaltempo" : [ 120.0 ],
									"basictuning" : [ 440 ],
									"originallengthms" : [ 0.0 ],
									"speed" : [ 5 ],
									"mode" : [ "basic" ],
									"pitchcorrection" : [ 0 ],
									"play" : [ 0 ],
									"slurtime" : [ 0.0 ],
									"followglobaltempo" : [ 0 ],
									"timestretch" : [ 0 ],
									"formantcorrection" : [ 0 ],
									"quality" : [ "basic" ],
									"pitchshift" : [ 1.0 ],
									"originallength" : [ 0.0, "ticks" ]
								}

							}
 ]
					}
,
					"id" : "obj-24",
					"maxclass" : "playlist~",
					"numinlets" : 1,
					"numoutlets" : 5,
					"outlettype" : [ "signal", "signal", "signal", "", "dictionary" ],
					"patching_rect" : [ 1189.3333740234375, 536.00006103515625, 150.0, 30.0 ]
				}

			}
, 			{
				"box" : 				{
					"id" : "obj-17",
					"maxclass" : "message",
					"numinlets" : 2,
					"numoutlets" : 1,
					"outlettype" : [ "" ],
					"patching_rect" : [ 1804.533447265625, 485.3333740234375, 61.0, 22.0 ],
					"text" : "speed 0.7"
				}

			}
, 			{
				"box" : 				{
					"data" : 					{
						"clips" : [ 							{
								"filename" : "C:/Users/Etienne/Documents/GitHub/GENERATIVE001/SAMPLES/Short Sounds Front/Ding ding ding.wav",
								"filekind" : "audiofile",
								"selection" : [ 0.0, 1.0 ],
								"loop" : 0,
								"content_state" : 								{
									"formant" : [ 1.0 ],
									"originaltempo" : [ 120.0 ],
									"basictuning" : [ 440 ],
									"originallengthms" : [ 0.0 ],
									"speed" : [ 0.7 ],
									"mode" : [ "basic" ],
									"pitchcorrection" : [ 0 ],
									"play" : [ 0 ],
									"slurtime" : [ 0.0 ],
									"followglobaltempo" : [ 0 ],
									"timestretch" : [ 0 ],
									"formantcorrection" : [ 0 ],
									"quality" : [ "basic" ],
									"pitchshift" : [ 1.0 ],
									"originallength" : [ 0.0, "ticks" ]
								}

							}
 ]
					}
,
					"id" : "obj-19",
					"maxclass" : "playlist~",
					"numinlets" : 1,
					"numoutlets" : 5,
					"outlettype" : [ "signal", "signal", "signal", "", "dictionary" ],
					"patching_rect" : [ 1713.3333740234375, 531.33331298828125, 150.0, 30.0 ]
				}

			}
, 			{
				"box" : 				{
					"id" : "obj-13",
					"maxclass" : "message",
					"numinlets" : 2,
					"numoutlets" : 1,
					"outlettype" : [ "" ],
					"patching_rect" : [ 2047.2000732421875, 496.000030517578125, 51.0, 22.0 ],
					"text" : "speed 3"
				}

			}
, 			{
				"box" : 				{
					"bgmode" : 0,
					"border" : 0,
					"clickthrough" : 0,
					"enablehscroll" : 0,
					"enablevscroll" : 0,
					"id" : "obj-12",
					"lockeddragscroll" : 0,
					"maxclass" : "bpatcher",
					"name" : "mixer_4channel.maxpat",
					"numinlets" : 8,
					"numoutlets" : 2,
					"offset" : [ 0.0, 0.0 ],
					"outlettype" : [ "signal", "signal" ],
					"patching_rect" : [ 1500.6234130859375, 725.20001220703125, 444.0, 518.0 ],
					"varname" : "mixer_4channel",
					"viewvisibility" : 1
				}

			}
, 			{
				"box" : 				{
					"data" : 					{
						"clips" : [ 							{
								"filename" : "C:/Users/Etienne/Documents/GitHub/GENERATIVE001/SAMPLES/Short Sounds Front/Ding ding ding.wav",
								"filekind" : "audiofile",
								"selection" : [ 0.0, 1.0 ],
								"loop" : 0,
								"content_state" : 								{
									"formant" : [ 1.0 ],
									"originaltempo" : [ 120.0 ],
									"basictuning" : [ 440 ],
									"originallengthms" : [ 0.0 ],
									"speed" : [ 3 ],
									"mode" : [ "basic" ],
									"pitchcorrection" : [ 0 ],
									"play" : [ 0 ],
									"slurtime" : [ 0.0 ],
									"followglobaltempo" : [ 0 ],
									"timestretch" : [ 0 ],
									"formantcorrection" : [ 0 ],
									"quality" : [ "basic" ],
									"pitchshift" : [ 1.0 ],
									"originallength" : [ 0.0, "ticks" ]
								}

							}
 ]
					}
,
					"id" : "obj-7",
					"maxclass" : "playlist~",
					"numinlets" : 1,
					"numoutlets" : 5,
					"outlettype" : [ "signal", "signal", "signal", "", "dictionary" ],
					"patching_rect" : [ 1956.0, 542.0, 150.0, 30.0 ]
				}

			}
, 			{
				"box" : 				{
					"bgmode" : 0,
					"border" : 0,
					"clickthrough" : 0,
					"enablehscroll" : 0,
					"enablevscroll" : 0,
					"id" : "obj-21",
					"lockeddragscroll" : 0,
					"maxclass" : "bpatcher",
					"name" : "euclid.maxpat",
					"numinlets" : 3,
					"numoutlets" : 1,
					"offset" : [ 0.0, 0.0 ],
					"outlettype" : [ "" ],
					"patching_rect" : [ 2327.857177734375, 364.28570556640625, 370.0, 123.0 ],
					"viewvisibility" : 1
				}

			}
, 			{
				"box" : 				{
					"bgmode" : 0,
					"border" : 0,
					"clickthrough" : 0,
					"enablehscroll" : 0,
					"enablevscroll" : 0,
					"id" : "obj-22",
					"lockeddragscroll" : 0,
					"maxclass" : "bpatcher",
					"name" : "euclid.maxpat",
					"numinlets" : 3,
					"numoutlets" : 1,
					"offset" : [ 0.0, 0.0 ],
					"outlettype" : [ "" ],
					"patching_rect" : [ 1944.857177734375, 364.28570556640625, 370.0, 123.0 ],
					"viewvisibility" : 1
				}

			}
, 			{
				"box" : 				{
					"id" : "obj-20",
					"maxclass" : "comment",
					"numinlets" : 1,
					"numoutlets" : 0,
					"patching_rect" : [ 1744.2900390625, 161.71429443359375, 150.0, 20.0 ],
					"text" : "BPM"
				}

			}
, 			{
				"box" : 				{
					"id" : "obj-18",
					"maxclass" : "number",
					"numinlets" : 1,
					"numoutlets" : 2,
					"outlettype" : [ "", "bang" ],
					"parameter_enable" : 0,
					"patching_rect" : [ 1692.2900390625, 160.71429443359375, 50.0, 22.0 ]
				}

			}
, 			{
				"box" : 				{
					"id" : "obj-16",
					"maxclass" : "newobj",
					"numinlets" : 1,
					"numoutlets" : 1,
					"outlettype" : [ "bang" ],
					"patcher" : 					{
						"fileversion" : 1,
						"appversion" : 						{
							"major" : 8,
							"minor" : 0,
							"revision" : 1,
							"architecture" : "x64",
							"modernui" : 1
						}
,
						"classnamespace" : "box",
						"rect" : [ 40.0, 144.0, 1141.0, 650.0 ],
						"bglocked" : 0,
						"openinpresentation" : 0,
						"default_fontsize" : 12.0,
						"default_fontface" : 0,
						"default_fontname" : "Arial",
						"gridonopen" : 1,
						"gridsize" : [ 15.0, 15.0 ],
						"gridsnaponopen" : 1,
						"objectsnaponopen" : 1,
						"statusbarvisible" : 2,
						"toolbarvisible" : 1,
						"lefttoolbarpinned" : 0,
						"toptoolbarpinned" : 0,
						"righttoolbarpinned" : 0,
						"bottomtoolbarpinned" : 0,
						"toolbars_unpinned_last_save" : 0,
						"tallnewobj" : 0,
						"boxanimatetime" : 200,
						"enablehscroll" : 1,
						"enablevscroll" : 1,
						"devicewidth" : 0.0,
						"description" : "",
						"digest" : "",
						"tags" : "",
						"style" : "",
						"subpatcher_template" : "",
						"boxes" : [ 							{
								"box" : 								{
									"comment" : "",
									"id" : "obj-5",
									"index" : 1,
									"maxclass" : "outlet",
									"numinlets" : 1,
									"numoutlets" : 0,
									"patching_rect" : [ 364.333282470703125, 380.0, 30.0, 30.0 ]
								}

							}
, 							{
								"box" : 								{
									"id" : "obj-3",
									"maxclass" : "comment",
									"numinlets" : 1,
									"numoutlets" : 0,
									"patching_rect" : [ 445.833251953125, 247.666656494140625, 296.0, 34.0 ],
									"text" : "BPM converted to millis\n"
								}

							}
, 							{
								"box" : 								{
									"format" : 6,
									"id" : "obj-62",
									"maxclass" : "flonum",
									"numinlets" : 1,
									"numoutlets" : 2,
									"outlettype" : [ "", "bang" ],
									"parameter_enable" : 1,
									"patching_rect" : [ 461.663177490234375, 173.0, 50.0, 22.0 ],
									"saved_attribute_attributes" : 									{
										"valueof" : 										{
											"parameter_type" : 3,
											"parameter_longname" : "number[10]",
											"parameter_initial_enable" : 1,
											"parameter_invisible" : 1,
											"parameter_mmax" : 0.0,
											"parameter_initial" : [ 100 ],
											"parameter_shortname" : "number"
										}

									}
,
									"varname" : "number"
								}

							}
, 							{
								"box" : 								{
									"id" : "obj-136",
									"maxclass" : "button",
									"numinlets" : 1,
									"numoutlets" : 1,
									"outlettype" : [ "bang" ],
									"parameter_enable" : 0,
									"patching_rect" : [ 364.333282470703125, 342.333343505859375, 24.0, 24.0 ]
								}

							}
, 							{
								"box" : 								{
									"id" : "obj-134",
									"maxclass" : "newobj",
									"numinlets" : 1,
									"numoutlets" : 1,
									"outlettype" : [ "bang" ],
									"patching_rect" : [ 295.0, 228.33331298828125, 58.0, 22.0 ],
									"text" : "loadbang"
								}

							}
, 							{
								"box" : 								{
									"id" : "obj-133",
									"maxclass" : "toggle",
									"numinlets" : 1,
									"numoutlets" : 1,
									"outlettype" : [ "int" ],
									"parameter_enable" : 0,
									"patching_rect" : [ 311.0, 268.333343505859375, 24.0, 24.0 ]
								}

							}
, 							{
								"box" : 								{
									"id" : "obj-131",
									"maxclass" : "message",
									"numinlets" : 2,
									"numoutlets" : 1,
									"outlettype" : [ "" ],
									"patching_rect" : [ 389.999969482421875, 185.0, 42.0, 22.0 ],
									"text" : "60000"
								}

							}
, 							{
								"box" : 								{
									"format" : 6,
									"id" : "obj-129",
									"maxclass" : "flonum",
									"numinlets" : 1,
									"numoutlets" : 2,
									"outlettype" : [ "", "bang" ],
									"parameter_enable" : 0,
									"patching_rect" : [ 389.999969482421875, 247.666656494140625, 50.0, 22.0 ]
								}

							}
, 							{
								"box" : 								{
									"id" : "obj-37",
									"maxclass" : "newobj",
									"numinlets" : 2,
									"numoutlets" : 1,
									"outlettype" : [ "int" ],
									"patching_rect" : [ 389.999969482421875, 215.329986572265625, 29.5, 22.0 ],
									"text" : "/ $1"
								}

							}
, 							{
								"box" : 								{
									"id" : "obj-10",
									"maxclass" : "comment",
									"numinlets" : 1,
									"numoutlets" : 0,
									"patching_rect" : [ 518.833251953125, 173.0, 150.0, 20.0 ],
									"text" : "BPM"
								}

							}
, 							{
								"box" : 								{
									"id" : "obj-6",
									"maxclass" : "newobj",
									"numinlets" : 2,
									"numoutlets" : 1,
									"outlettype" : [ "bang" ],
									"patching_rect" : [ 364.333282470703125, 310.666656494140625, 39.0, 22.0 ],
									"text" : "metro"
								}

							}
, 							{
								"box" : 								{
									"comment" : "BPM - int",
									"hidden" : 1,
									"id" : "obj-1",
									"index" : 1,
									"maxclass" : "inlet",
									"numinlets" : 0,
									"numoutlets" : 1,
									"outlettype" : [ "" ],
									"patching_rect" : [ 461.663177490234375, 103.0, 30.0, 30.0 ]
								}

							}
 ],
						"lines" : [ 							{
								"patchline" : 								{
									"destination" : [ "obj-62", 0 ],
									"source" : [ "obj-1", 0 ]
								}

							}
, 							{
								"patchline" : 								{
									"destination" : [ "obj-6", 1 ],
									"source" : [ "obj-129", 0 ]
								}

							}
, 							{
								"patchline" : 								{
									"destination" : [ "obj-37", 0 ],
									"source" : [ "obj-131", 0 ]
								}

							}
, 							{
								"patchline" : 								{
									"destination" : [ "obj-6", 0 ],
									"source" : [ "obj-133", 0 ]
								}

							}
, 							{
								"patchline" : 								{
									"destination" : [ "obj-133", 0 ],
									"source" : [ "obj-134", 0 ]
								}

							}
, 							{
								"patchline" : 								{
									"destination" : [ "obj-5", 0 ],
									"source" : [ "obj-136", 0 ]
								}

							}
, 							{
								"patchline" : 								{
									"destination" : [ "obj-129", 0 ],
									"source" : [ "obj-37", 0 ]
								}

							}
, 							{
								"patchline" : 								{
									"destination" : [ "obj-136", 0 ],
									"source" : [ "obj-6", 0 ]
								}

							}
, 							{
								"patchline" : 								{
									"destination" : [ "obj-131", 0 ],
									"order" : 1,
									"source" : [ "obj-62", 0 ]
								}

							}
, 							{
								"patchline" : 								{
									"destination" : [ "obj-37", 1 ],
									"order" : 0,
									"source" : [ "obj-62", 0 ]
								}

							}
 ],
						"styles" : [ 							{
								"name" : "newobjBlue-1",
								"default" : 								{
									"accentcolor" : [ 0.317647, 0.654902, 0.976471, 1 ]
								}
,
								"parentstyle" : "",
								"multi" : 0
							}
, 							{
								"name" : "newobjCyan-1",
								"default" : 								{
									"accentcolor" : [ 0.029546, 0.773327, 0.821113, 1 ]
								}
,
								"parentstyle" : "",
								"multi" : 0
							}
, 							{
								"name" : "newobjGreen-1",
								"default" : 								{
									"accentcolor" : [ 0, 0.533333, 0.168627, 1 ]
								}
,
								"parentstyle" : "",
								"multi" : 0
							}
, 							{
								"name" : "newobjMagenta-1",
								"default" : 								{
									"accentcolor" : [ 0.840663, 0.060168, 0.769195, 1 ]
								}
,
								"parentstyle" : "",
								"multi" : 0
							}
, 							{
								"name" : "newobjYellow-1",
								"default" : 								{
									"accentcolor" : [ 0.82517, 0.78181, 0.059545, 1 ],
									"fontsize" : [ 12.059008 ]
								}
,
								"parentstyle" : "",
								"multi" : 0
							}
 ]
					}
,
					"patching_rect" : [ 1692.2900390625, 204.567138671875, 82.0, 22.0 ],
					"saved_object_attributes" : 					{
						"description" : "",
						"digest" : "",
						"globalpatchername" : "",
						"tags" : ""
					}
,
					"text" : "p BPM_metro"
				}

			}
, 			{
				"box" : 				{
					"id" : "obj-29",
					"lastchannelcount" : 0,
					"maxclass" : "live.gain~",
					"numinlets" : 2,
					"numoutlets" : 5,
					"orientation" : 1,
					"outlettype" : [ "signal", "signal", "", "float", "list" ],
					"parameter_enable" : 1,
					"patching_rect" : [ 894.2857666015625, 1245.4285888671875, 136.0, 47.0 ],
					"saved_attribute_attributes" : 					{
						"valueof" : 						{
							"parameter_type" : 0,
							"parameter_unitstyle" : 4,
							"parameter_mmin" : -70.0,
							"parameter_longname" : "live.gain~",
							"parameter_mmax" : 6.0,
							"parameter_initial" : [ 0.0 ],
							"parameter_shortname" : "live.gain~"
						}

					}
,
					"varname" : "live.gain~"
				}

			}
, 			{
				"box" : 				{
					"id" : "obj-28",
					"maxclass" : "ezdac~",
					"numinlets" : 2,
					"numoutlets" : 0,
					"patching_rect" : [ 882.28564453125, 1359.4285888671875, 45.0, 45.0 ]
				}

			}
, 			{
				"box" : 				{
					"id" : "obj-27",
					"maxclass" : "newobj",
					"numinlets" : 3,
					"numoutlets" : 1,
					"outlettype" : [ "signal" ],
					"patching_rect" : [ 920.28564453125, 1320.4285888671875, 58.0, 22.0 ],
					"text" : "clip~ -1 1"
				}

			}
, 			{
				"box" : 				{
					"id" : "obj-26",
					"maxclass" : "newobj",
					"numinlets" : 3,
					"numoutlets" : 1,
					"outlettype" : [ "signal" ],
					"patching_rect" : [ 854.2857666015625, 1320.4285888671875, 58.0, 22.0 ],
					"text" : "clip~ -1 1"
				}

			}
, 			{
				"box" : 				{
					"bgmode" : 0,
					"border" : 0,
					"clickthrough" : 0,
					"enablehscroll" : 0,
					"enablevscroll" : 0,
					"id" : "obj-3",
					"lockeddragscroll" : 0,
					"maxclass" : "bpatcher",
					"name" : "euclid.maxpat",
					"numinlets" : 3,
					"numoutlets" : 1,
					"offset" : [ 0.0, 0.0 ],
					"outlettype" : [ "" ],
					"patching_rect" : [ 1560.857177734375, 364.28570556640625, 370.0, 123.0 ],
					"viewvisibility" : 1
				}

			}
, 			{
				"box" : 				{
					"bgmode" : 0,
					"border" : 0,
					"clickthrough" : 0,
					"enablehscroll" : 0,
					"enablevscroll" : 0,
					"id" : "obj-1",
					"lockeddragscroll" : 0,
					"maxclass" : "bpatcher",
					"name" : "euclid.maxpat",
					"numinlets" : 3,
					"numoutlets" : 1,
					"offset" : [ 0.0, 0.0 ],
					"outlettype" : [ "" ],
					"patching_rect" : [ 1174.857177734375, 356.28570556640625, 370.0, 123.0 ],
					"viewvisibility" : 1
				}

			}
, 			{
				"box" : 				{
					"fontface" : 1,
					"fontsize" : 36.0,
					"id" : "obj-4",
					"maxclass" : "comment",
					"numinlets" : 1,
					"numoutlets" : 0,
					"patching_rect" : [ 1477.0, 20.0, 440.0, 47.0 ],
					"text" : "my first rhythm"
				}

			}
, 			{
				"box" : 				{
					"fontface" : 1,
					"fontsize" : 36.0,
					"id" : "obj-2",
					"maxclass" : "comment",
					"numinlets" : 1,
					"numoutlets" : 0,
					"patching_rect" : [ 339.0, 34.0, 440.0, 47.0 ],
					"text" : "GENERATIVE MUSIC 001"
				}

			}
 ],
		"lines" : [ 			{
				"patchline" : 				{
					"destination" : [ "obj-24", 0 ],
					"source" : [ "obj-1", 0 ]
				}

			}
, 			{
				"patchline" : 				{
					"destination" : [ "obj-29", 1 ],
					"source" : [ "obj-12", 1 ]
				}

			}
, 			{
				"patchline" : 				{
					"destination" : [ "obj-29", 0 ],
					"source" : [ "obj-12", 0 ]
				}

			}
, 			{
				"patchline" : 				{
					"destination" : [ "obj-7", 0 ],
					"source" : [ "obj-13", 0 ]
				}

			}
, 			{
				"patchline" : 				{
					"destination" : [ "obj-1", 0 ],
					"order" : 7,
					"source" : [ "obj-16", 0 ]
				}

			}
, 			{
				"patchline" : 				{
					"destination" : [ "obj-21", 0 ],
					"order" : 6,
					"source" : [ "obj-16", 0 ]
				}

			}
, 			{
				"patchline" : 				{
					"destination" : [ "obj-22", 0 ],
					"order" : 5,
					"source" : [ "obj-16", 0 ]
				}

			}
, 			{
				"patchline" : 				{
					"destination" : [ "obj-3", 0 ],
					"order" : 4,
					"source" : [ "obj-16", 0 ]
				}

			}
, 			{
				"patchline" : 				{
					"destination" : [ "obj-31", 0 ],
					"order" : 2,
					"source" : [ "obj-16", 0 ]
				}

			}
, 			{
				"patchline" : 				{
					"destination" : [ "obj-34", 0 ],
					"order" : 3,
					"source" : [ "obj-16", 0 ]
				}

			}
, 			{
				"patchline" : 				{
					"destination" : [ "obj-39", 0 ],
					"order" : 1,
					"source" : [ "obj-16", 0 ]
				}

			}
, 			{
				"patchline" : 				{
					"destination" : [ "obj-40", 0 ],
					"order" : 0,
					"source" : [ "obj-16", 0 ]
				}

			}
, 			{
				"patchline" : 				{
					"destination" : [ "obj-19", 0 ],
					"source" : [ "obj-17", 0 ]
				}

			}
, 			{
				"patchline" : 				{
					"destination" : [ "obj-16", 0 ],
					"source" : [ "obj-18", 0 ]
				}

			}
, 			{
				"patchline" : 				{
					"destination" : [ "obj-25", 0 ],
					"source" : [ "obj-21", 0 ]
				}

			}
, 			{
				"patchline" : 				{
					"destination" : [ "obj-7", 0 ],
					"source" : [ "obj-22", 0 ]
				}

			}
, 			{
				"patchline" : 				{
					"destination" : [ "obj-24", 0 ],
					"source" : [ "obj-23", 0 ]
				}

			}
, 			{
				"patchline" : 				{
					"destination" : [ "obj-12", 1 ],
					"source" : [ "obj-24", 1 ]
				}

			}
, 			{
				"patchline" : 				{
					"destination" : [ "obj-12", 0 ],
					"source" : [ "obj-24", 0 ]
				}

			}
, 			{
				"patchline" : 				{
					"destination" : [ "obj-28", 0 ],
					"source" : [ "obj-26", 0 ]
				}

			}
, 			{
				"patchline" : 				{
					"destination" : [ "obj-28", 1 ],
					"source" : [ "obj-27", 0 ]
				}

			}
, 			{
				"patchline" : 				{
					"destination" : [ "obj-26", 0 ],
					"source" : [ "obj-29", 0 ]
				}

			}
, 			{
				"patchline" : 				{
					"destination" : [ "obj-27", 0 ],
					"source" : [ "obj-29", 1 ]
				}

			}
, 			{
				"patchline" : 				{
					"destination" : [ "obj-19", 0 ],
					"source" : [ "obj-3", 0 ]
				}

			}
, 			{
				"patchline" : 				{
					"destination" : [ "obj-25", 0 ],
					"source" : [ "obj-30", 0 ]
				}

			}
, 			{
				"patchline" : 				{
					"destination" : [ "obj-1", 2 ],
					"source" : [ "obj-31", 0 ]
				}

			}
, 			{
				"patchline" : 				{
					"destination" : [ "obj-31", 0 ],
					"source" : [ "obj-33", 0 ]
				}

			}
, 			{
				"patchline" : 				{
					"destination" : [ "obj-1", 1 ],
					"order" : 1,
					"source" : [ "obj-34", 0 ]
				}

			}
, 			{
				"patchline" : 				{
					"destination" : [ "obj-38", 0 ],
					"order" : 0,
					"source" : [ "obj-34", 0 ]
				}

			}
, 			{
				"patchline" : 				{
					"destination" : [ "obj-34", 0 ],
					"source" : [ "obj-35", 0 ]
				}

			}
, 			{
				"patchline" : 				{
					"destination" : [ "obj-22", 1 ],
					"source" : [ "obj-39", 0 ]
				}

			}
, 			{
				"patchline" : 				{
					"destination" : [ "obj-22", 2 ],
					"source" : [ "obj-40", 0 ]
				}

			}
, 			{
				"patchline" : 				{
					"destination" : [ "obj-44", 0 ],
					"order" : 0,
					"source" : [ "obj-42", 0 ]
				}

			}
, 			{
				"patchline" : 				{
					"destination" : [ "obj-46", 0 ],
					"order" : 1,
					"source" : [ "obj-42", 0 ]
				}

			}
, 			{
				"patchline" : 				{
					"destination" : [ "obj-42", 0 ],
					"source" : [ "obj-43", 0 ]
				}

			}
, 			{
				"patchline" : 				{
					"destination" : [ "obj-47", 0 ],
					"order" : 0,
					"source" : [ "obj-46", 0 ]
				}

			}
, 			{
				"patchline" : 				{
					"destination" : [ "obj-49", 0 ],
					"order" : 1,
					"source" : [ "obj-46", 0 ]
				}

			}
, 			{
				"patchline" : 				{
					"destination" : [ "obj-12", 5 ],
					"order" : 0,
					"source" : [ "obj-49", 0 ]
				}

			}
, 			{
				"patchline" : 				{
					"destination" : [ "obj-12", 4 ],
					"order" : 1,
					"source" : [ "obj-49", 0 ]
				}

			}
, 			{
				"patchline" : 				{
					"destination" : [ "obj-12", 3 ],
					"source" : [ "obj-7", 1 ]
				}

			}
, 			{
				"patchline" : 				{
					"destination" : [ "obj-12", 2 ],
					"source" : [ "obj-7", 0 ]
				}

			}
 ],
		"parameters" : 		{
			"obj-12::obj-14::obj-113" : [ "pan[8]", "Pan", 0 ],
			"obj-12::obj-25::obj-17" : [ "mid[9]", "Mid", 0 ],
			"obj-12::obj-10::obj-88" : [ "gain[23]", "Gain", 0 ],
			"obj-12::obj-21::obj-35" : [ "bus[17]", "Bus", 0 ],
			"obj-12::obj-6::obj-4" : [ "setname[39]", "Setname", 0 ],
			"obj-12::obj-4::obj-35" : [ "bus[13]", "Bus", 0 ],
			"obj-12::obj-8::obj-88" : [ "gain[24]", "Gain", 0 ],
			"obj-12::obj-25::obj-18" : [ "hifreq[8]", "HiFreq", 0 ],
			"obj-12::obj-6::obj-113" : [ "pan[7]", "Pan", 0 ],
			"obj-12::obj-20::obj-9" : [ "active[93]", "Active", 0 ],
			"obj-12::obj-19::obj-4" : [ "setname[16]", "Setname", 0 ],
			"obj-12::obj-15::obj-16" : [ "lofreq[8]", "LoFreq", 0 ],
			"obj-12::obj-7::obj-18" : [ "hifreq[19]", "HiFreq", 0 ],
			"obj-12::obj-7::obj-36" : [ "hi[7]", "Hi", 0 ],
			"obj-12::obj-6::obj-114" : [ "solo[7]", "Solo", 0 ],
			"obj-12::obj-14::obj-30" : [ "qlist[43]", "Qlist", 0 ],
			"obj-12::obj-19::obj-30" : [ "qlist[12]", "Qlist", 0 ],
			"obj-49::obj-47" : [ "Release", "Release", 0 ],
			"obj-12::obj-11::obj-88" : [ "gain[17]", "Gain", 0 ],
			"obj-12::obj-25::obj-16" : [ "lofreq[10]", "LoFreq", 0 ],
			"obj-12::obj-24::obj-116" : [ "gain[28]", "Gain", 0 ],
			"obj-46::obj-95" : [ "Freq", "Freq", 0 ],
			"obj-12::obj-17::obj-35" : [ "bus[51]", "Bus", 0 ],
			"obj-12::obj-1::obj-9" : [ "active[19]", "Active", 0 ],
			"obj-12::obj-12::obj-88" : [ "gain[18]", "Gain", 0 ],
			"obj-49::obj-52" : [ "Threshold", "Threshold", 0 ],
			"obj-12::obj-4::obj-122" : [ "active[26]", "Active", 0 ],
			"obj-12::obj-25::obj-19" : [ "lo[9]", "Lo", 0 ],
			"obj-12::obj-16::obj-35" : [ "bus[52]", "Bus", 0 ],
			"obj-12::obj-25::obj-36" : [ "hi[10]", "Hi", 0 ],
			"obj-46::obj-98" : [ "Gain", "Gain", 0 ],
			"obj-12::obj-1::obj-4" : [ "setname[10]", "Setname", 0 ],
			"obj-12::obj-20::obj-28" : [ "init[9]", "Init", 0 ],
			"obj-12::obj-8::obj-35" : [ "bus[15]", "Bus", 0 ],
			"obj-12::obj-6::obj-116" : [ "gain[20]", "Gain", 0 ],
			"obj-12::obj-15::obj-9" : [ "active[27]", "Active", 0 ],
			"obj-49::obj-12" : [ "Bypass", "Bypass", 0 ],
			"obj-12::obj-6::obj-115" : [ "active[25]", "Active", 0 ],
			"obj-12::obj-14::obj-116" : [ "gain[22]", "Gain", 0 ],
			"obj-46::obj-51" : [ "CV2", "CV2", 0 ],
			"obj-12::obj-7::obj-4" : [ "setname[12]", "Setname", 0 ],
			"obj-12::obj-15::obj-4" : [ "setname[13]", "Setname", 0 ],
			"obj-12::obj-5::obj-4" : [ "setname[11]", "Setname", 0 ],
			"obj-12::obj-7::obj-16" : [ "lofreq[7]", "LoFreq", 0 ],
			"obj-49::obj-44" : [ "Input", "Input", 0 ],
			"obj-12::obj-7::obj-9" : [ "active[24]", "Active", 0 ],
			"obj-12::obj-15::obj-18" : [ "hifreq[6]", "HiFreq", 0 ],
			"obj-12::obj-8::obj-122" : [ "active[92]", "Active", 0 ],
			"obj-46::obj-55" : [ "power", "power", 0 ],
			"obj-12::obj-1::obj-17" : [ "mid[5]", "Mid", 0 ],
			"obj-12::obj-25::obj-9" : [ "active[31]", "Active", 0 ],
			"obj-12::obj-7::obj-17" : [ "mid[6]", "Mid", 0 ],
			"obj-12::obj-20::obj-17" : [ "mid[8]", "Mid", 0 ],
			"obj-12::obj-19::obj-114" : [ "solo[9]", "Solo", 0 ],
			"obj-12::obj-17::obj-88" : [ "gain[26]", "Gain", 0 ],
			"obj-12::obj-17::obj-122" : [ "active[95]", "Active", 0 ],
			"obj-12::obj-22::obj-122" : [ "active[33]", "Active", 0 ],
			"obj-12::obj-1::obj-36" : [ "hi[6]", "Hi", 0 ],
			"obj-12::obj-11::obj-35" : [ "bus[10]", "Bus", 0 ],
			"obj-12::obj-7::obj-30" : [ "qlist[10]", "Qlist", 0 ],
			"obj-12::obj-21::obj-122" : [ "active[34]", "Active", 0 ],
			"obj-12::obj-16::obj-122" : [ "active[30]", "Active", 0 ],
			"obj-12::obj-7::obj-28" : [ "init[7]", "Init", 0 ],
			"obj-12::obj-15::obj-30" : [ "qlist[42]", "Qlist", 0 ],
			"obj-12::obj-20::obj-19" : [ "lo[8]", "Lo", 0 ],
			"obj-49::obj-35" : [ "slider[2]", "slider[2]", 0 ],
			"obj-12::obj-15::obj-19" : [ "lo[7]", "Lo", 0 ],
			"obj-46::obj-11" : [ "Resonance", "Res", 0 ],
			"obj-12::obj-24::obj-115" : [ "active[32]", "Active", 0 ],
			"obj-12::obj-1::obj-30" : [ "qlist[8]", "Qlist", 0 ],
			"obj-12::obj-4::obj-88" : [ "gain[21]", "Gain", 0 ],
			"obj-12::obj-24::obj-4" : [ "setname[18]", "Setname", 0 ],
			"obj-12::obj-9::obj-35" : [ "bus[12]", "Bus", 0 ],
			"obj-12::obj-19::obj-113" : [ "pan[9]", "Pan", 0 ],
			"obj-12::obj-1::obj-19" : [ "lo[5]", "Lo", 0 ],
			"obj-12::obj-14::obj-114" : [ "solo[8]", "Solo", 0 ],
			"obj-12::obj-21::obj-88" : [ "gain[30]", "Gain", 0 ],
			"obj-49::obj-2" : [ "Output", "Output", 0 ],
			"obj-12::obj-5::obj-113" : [ "pan[6]", "Pan", 0 ],
			"obj-12::obj-11::obj-122" : [ "active[21]", "Active", 0 ],
			"obj-12::obj-15::obj-17" : [ "mid[7]", "Mid", 0 ],
			"obj-12::obj-14::obj-115" : [ "active[28]", "Active", 0 ],
			"obj-12::obj-24::obj-30" : [ "qlist[14]", "Qlist", 0 ],
			"obj-12::obj-25::obj-28" : [ "init[10]", "Init", 0 ],
			"obj-16::obj-62" : [ "number[10]", "number", 0 ],
			"obj-12::obj-20::obj-18" : [ "hifreq[7]", "HiFreq", 0 ],
			"obj-12::obj-20::obj-36" : [ "hi[9]", "Hi", 0 ],
			"obj-12::obj-9::obj-122" : [ "active[23]", "Active", 0 ],
			"obj-12::obj-20::obj-30" : [ "qlist[11]", "Qlist", 0 ],
			"obj-12::obj-12::obj-35" : [ "bus[11]", "Bus", 0 ],
			"obj-12::obj-10::obj-122" : [ "active[29]", "Active", 0 ],
			"obj-12::obj-5::obj-116" : [ "gain[16]", "Gain", 0 ],
			"obj-12::obj-7::obj-19" : [ "lo[6]", "Lo", 0 ],
			"obj-12::obj-15::obj-36" : [ "hi[8]", "Hi", 0 ],
			"obj-12::obj-16::obj-88" : [ "gain[27]", "Gain", 0 ],
			"obj-12::obj-25::obj-4" : [ "setname[17]", "Setname", 0 ],
			"obj-49::obj-78" : [ "Ratio", "Ratio", 0 ],
			"obj-12::obj-9::obj-88" : [ "gain[19]", "Gain", 0 ],
			"obj-46::obj-63" : [ "CV3", "CV3", 0 ],
			"obj-12::obj-5::obj-30" : [ "qlist[9]", "Qlist", 0 ],
			"obj-12::obj-19::obj-115" : [ "active[94]", "Active", 0 ],
			"obj-12::obj-24::obj-113" : [ "pan[10]", "Pan", 0 ],
			"obj-12::obj-22::obj-35" : [ "bus[16]", "Bus", 0 ],
			"obj-46::obj-26" : [ "spectral", "spectral", 0 ],
			"obj-12::obj-20::obj-4" : [ "setname[15]", "Setname", 0 ],
			"obj-29" : [ "live.gain~", "live.gain~", 0 ],
			"obj-12::obj-6::obj-30" : [ "qlist[41]", "Qlist", 0 ],
			"obj-12::obj-1::obj-28" : [ "init[6]", "Init", 0 ],
			"obj-12::obj-19::obj-116" : [ "gain[25]", "Gain", 0 ],
			"obj-12::obj-1::obj-16" : [ "lofreq[6]", "LoFreq", 0 ],
			"obj-49::obj-15::obj-2" : [ "pastebang", "pastebang", 0 ],
			"obj-12::obj-5::obj-114" : [ "solo[6]", "Solo", 0 ],
			"obj-49::obj-28" : [ "Attack", "Attack", 0 ],
			"obj-12::obj-1::obj-18" : [ "hifreq[5]", "HiFreq", 0 ],
			"obj-12::obj-14::obj-4" : [ "setname[14]", "Setname", 0 ],
			"obj-12::obj-24::obj-114" : [ "solo[10]", "Solo", 0 ],
			"obj-12::obj-22::obj-88" : [ "gain[29]", "Gain", 0 ],
			"obj-46::obj-54" : [ "CV1", "CV1", 0 ],
			"obj-49::obj-34" : [ "slider[3]", "slider[3]", 0 ],
			"obj-12::obj-20::obj-16" : [ "lofreq[9]", "LoFreq", 0 ],
			"obj-46::obj-59" : [ "filter_mode", "filter_mode", 0 ],
			"obj-12::obj-5::obj-115" : [ "active[20]", "Active", 0 ],
			"obj-12::obj-10::obj-35" : [ "bus[14]", "Bus", 0 ],
			"obj-12::obj-25::obj-30" : [ "qlist[13]", "Qlist", 0 ],
			"obj-12::obj-12::obj-122" : [ "active[22]", "Active", 0 ],
			"obj-12::obj-15::obj-28" : [ "init[8]", "Init", 0 ],
			"parameterbanks" : 			{

			}

		}
,
		"dependency_cache" : [ 			{
				"name" : "euclid.maxpat",
				"bootpath" : "~/Documents/GitHub/GENERATIVE001",
				"patcherrelativepath" : ".",
				"type" : "JSON",
				"implicit" : 1
			}
, 			{
				"name" : "euclid.js",
				"bootpath" : "~/Documents/GitHub/GENERATIVE001",
				"patcherrelativepath" : ".",
				"type" : "TEXT",
				"implicit" : 1
			}
, 			{
				"name" : "Ding ding ding.wav",
				"bootpath" : "~/Documents/GitHub/GENERATIVE001/SAMPLES/Short Sounds Front",
				"patcherrelativepath" : "./SAMPLES/Short Sounds Front",
				"type" : "WAVE",
				"implicit" : 1
			}
, 			{
				"name" : "mixer_4channel.maxpat",
				"bootpath" : "~/Documents/GitHub/GENERATIVE001",
				"patcherrelativepath" : ".",
				"type" : "JSON",
				"implicit" : 1
			}
, 			{
				"name" : "AudioEQ.maxpat",
				"bootpath" : "~/Documents/Max 8/Packages/AudioMix/patchers",
				"patcherrelativepath" : "../../Max 8/Packages/AudioMix/patchers",
				"type" : "JSON",
				"implicit" : 1
			}
, 			{
				"name" : "AudioMix.maxpat",
				"bootpath" : "~/Documents/Max 8/Packages/AudioMix/patchers",
				"patcherrelativepath" : "../../Max 8/Packages/AudioMix/patchers",
				"type" : "JSON",
				"implicit" : 1
			}
, 			{
				"name" : "AudioSend.maxpat",
				"bootpath" : "~/Documents/Max 8/Packages/AudioMix/patchers",
				"patcherrelativepath" : "../../Max 8/Packages/AudioMix/patchers",
				"type" : "JSON",
				"implicit" : 1
			}
, 			{
				"name" : "AudioSend2.maxpat",
				"bootpath" : "~/Documents/Max 8/Packages/AudioMix/patchers",
				"patcherrelativepath" : "../../Max 8/Packages/AudioMix/patchers",
				"type" : "JSON",
				"implicit" : 1
			}
, 			{
				"name" : "AudioReceive2.maxpat",
				"bootpath" : "~/Documents/Max 8/Packages/AudioMix/patchers",
				"patcherrelativepath" : "../../Max 8/Packages/AudioMix/patchers",
				"type" : "JSON",
				"implicit" : 1
			}
, 			{
				"name" : "main_mixer.json",
				"bootpath" : "~/Documents/GitHub/GENERATIVE001",
				"patcherrelativepath" : ".",
				"type" : "JSON",
				"implicit" : 1
			}
, 			{
				"name" : "design_room.wav",
				"bootpath" : "~/Documents/GitHub/GENERATIVE001/SAMPLES/Loop Back Ambiance",
				"patcherrelativepath" : "./SAMPLES/Loop Back Ambiance",
				"type" : "WAVE",
				"implicit" : 1
			}
, 			{
				"name" : "bp.Classroom Filter.maxpat",
				"bootpath" : "C74:/packages/Beap/clippings/BEAP/Filter",
				"type" : "JSON",
				"implicit" : 1
			}
, 			{
				"name" : "bp.Compressor.maxpat",
				"bootpath" : "C74:/packages/Beap/clippings/BEAP/Effects",
				"type" : "JSON",
				"implicit" : 1
			}
, 			{
				"name" : "pastebang.maxpat",
				"bootpath" : "C74:/packages/Beap/misc",
				"type" : "JSON",
				"implicit" : 1
			}
 ],
		"autosave" : 0,
		"styles" : [ 			{
				"name" : "newobjBlue-1",
				"default" : 				{
					"accentcolor" : [ 0.317647, 0.654902, 0.976471, 1 ]
				}
,
				"parentstyle" : "",
				"multi" : 0
			}
, 			{
				"name" : "newobjCyan-1",
				"default" : 				{
					"accentcolor" : [ 0.029546, 0.773327, 0.821113, 1 ]
				}
,
				"parentstyle" : "",
				"multi" : 0
			}
, 			{
				"name" : "newobjGreen-1",
				"default" : 				{
					"accentcolor" : [ 0, 0.533333, 0.168627, 1 ]
				}
,
				"parentstyle" : "",
				"multi" : 0
			}
, 			{
				"name" : "newobjMagenta-1",
				"default" : 				{
					"accentcolor" : [ 0.840663, 0.060168, 0.769195, 1 ]
				}
,
				"parentstyle" : "",
				"multi" : 0
			}
, 			{
				"name" : "newobjYellow-1",
				"default" : 				{
					"accentcolor" : [ 0.82517, 0.78181, 0.059545, 1 ],
					"fontsize" : [ 12.059008 ]
				}
,
				"parentstyle" : "",
				"multi" : 0
			}
 ]
	}

}
